<svg id="Layer_1" data-name="Layer 1" xmlns="http://www.w3.org/2000/svg" viewBox="0 0 2834.65 1355.82"><circle cx="1425.56" cy="837.72" r="314.28" style="fill:#ec008c"/><path d="M2453.56,901.93c-838-387.43-1430.95-327.5-1861.87,93.8h0c526.85-753.39,1192.74-648.84,1861.87-93.8Z" style="fill:#ec008c"/><path d="M631.88,559.1C707.1,626.3,721.76,687,688.39,712.67c-35.65,27.48-87.43,21.55-146-73.95-43.1-70.29-81.22-131.58-56.51-153.57S569.68,503.53,631.88,559.1Z" style="fill:#ec008c"/><path d="M2470.32,615.39c-16.53,99.5-59.93,144.34-99.51,129.9-42.29-15.42-65-62.34-15.62-162.89,36.34-74,67.73-139,99.52-129.9S2484,533.11,2470.32,615.39Z" style="fill:#ec008c"/><path d="M1085.69,277.63c69.56,98,76.82,169.65,38.61,187.5-40.82,19.06-94-3.87-142.47-127.87-35.64-91.28-67.29-171-38.6-187.5S1028.18,196.57,1085.69,277.63Z" style="fill:#ec008c"/><path d="M1876.28,305.84c-6.31,98.62-44.9,146.41-85.71,136C1747,430.7,1719.63,387,1758.46,284.32c28.59-75.6,53.19-141.94,85.72-136S1881.5,224.28,1876.28,305.84Z" style="fill:#ec008c"/></svg>